<svg width="24" height="18" viewBox="0 0 24 18" fill="none" xmlns="http://www.w3.org/2000/svg">
<path d="M1.64563 17.5534C0.736775 17.5534 0 16.8166 0 15.9078V10.4223C0 9.51348 0.736775 8.77671 1.64563 8.77671C2.55449 8.77671 3.29127 9.51348 3.29127 10.4223V15.9078C3.29127 16.8166 2.55449 17.5534 1.64563 17.5534ZM8.22816 17.5534C7.31931 17.5534 6.58253 16.8166 6.58253 15.9078V7.67962C6.58253 6.77076 7.31931 6.03399 8.22816 6.03399C9.13702 6.03399 9.8738 6.77076 9.8738 7.67962V15.9078C9.8738 16.8166 9.13702 17.5534 8.22816 17.5534ZM14.8107 17.5534C13.9018 17.5534 13.1651 16.8166 13.1651 15.9078V4.9369C13.1651 4.02804 13.9018 3.29127 14.8107 3.29127C15.7196 3.29127 16.4563 4.02804 16.4563 4.9369V15.9078C16.4563 16.8166 15.7196 17.5534 14.8107 17.5534ZM21.3932 17.5534C20.4844 17.5534 19.7476 16.8166 19.7476 15.9078V1.64563C19.7476 0.736776 20.4844 0 21.3932 0C22.3021 0 23.0389 0.736775 23.0389 1.64563V15.9078C23.0389 16.8166 22.3021 17.5534 21.3932 17.5534Z" fill="#8686FF"/>
</svg>
