<svg width="20" height="22" viewBox="0 0 20 22" fill="none" xmlns="http://www.w3.org/2000/svg">
<path d="M2.19418 21.9418C1.59078 21.9418 1.07423 21.7269 0.64454 21.2972C0.214847 20.8675 0 20.351 0 19.7476V4.38835C0 3.78496 0.214847 3.26841 0.64454 2.83872C1.07423 2.40902 1.59078 2.19418 2.19418 2.19418H3.29127V0H5.48544V2.19418H14.2621V0H16.4563V2.19418H17.5534C18.1568 2.19418 18.6734 2.40902 19.1031 2.83872C19.5327 3.26841 19.7476 3.78496 19.7476 4.38835V19.7476C19.7476 20.351 19.5327 20.8675 19.1031 21.2972C18.6734 21.7269 18.1568 21.9418 17.5534 21.9418H2.19418ZM2.19418 19.7476H17.5534V8.77671H2.19418V19.7476ZM2.19418 6.58253H17.5534V4.38835H2.19418V6.58253ZM4.38835 13.1651V10.9709H15.3592V13.1651H4.38835ZM4.38835 17.5534V15.3592H12.068V17.5534H4.38835Z" fill="#F69A7F"/>
</svg>
