<svg width="18" height="22" viewBox="0 0 18 22" fill="none" xmlns="http://www.w3.org/2000/svg">
<path d="M1.09709 21.9418V19.7476H7.67962V15.3592H5.48544C3.9678 15.3592 2.67415 14.8244 1.60449 13.7547C0.534831 12.6851 0 11.3914 0 9.8738C0 8.77671 0.301699 7.76647 0.905098 6.84309C1.5085 5.91971 2.32217 5.24774 3.34612 4.82719C3.51068 3.45583 4.10951 2.30846 5.1426 1.38507C6.17569 0.461691 7.38706 0 8.77671 0C10.1664 0 11.3777 0.461691 12.4108 1.38507C13.4439 2.30846 14.0427 3.45583 14.2073 4.82719C15.2312 5.24774 16.0449 5.91971 16.6483 6.84309C17.2517 7.76647 17.5534 8.77671 17.5534 9.8738C17.5534 11.3914 17.0186 12.6851 15.9489 13.7547C14.8793 14.8244 13.5856 15.3592 12.068 15.3592H9.8738V19.7476H16.4563V21.9418H1.09709ZM5.48544 13.1651H12.068C12.9822 13.1651 13.7593 12.8451 14.3993 12.2051C15.0393 11.5651 15.3592 10.788 15.3592 9.8738C15.3592 9.21554 15.1718 8.61214 14.797 8.0636C14.4221 7.51506 13.933 7.11279 13.3296 6.8568L12.1777 6.36311L12.0131 5.10146C11.9034 4.27865 11.5423 3.58839 10.9297 3.03071C10.3172 2.47302 9.59952 2.19418 8.77671 2.19418C7.95389 2.19418 7.23621 2.47302 6.62367 3.03071C6.01113 3.58839 5.65001 4.27865 5.5403 5.10146L5.37573 6.36311L4.22379 6.8568C3.62039 7.11279 3.13127 7.51506 2.75643 8.0636C2.3816 8.61214 2.19418 9.21554 2.19418 9.8738C2.19418 10.788 2.51416 11.5651 3.15413 12.2051C3.7941 12.8451 4.5712 13.1651 5.48544 13.1651Z" fill="#69C47D"/>
</svg>
