<svg width="88" height="32" viewBox="0 12 88 31.3" fill="none" xmlns="http://www.w3.org/2000/svg">
<path d="M4.9873 20.3682C7.14849 18.7002 9.85577 17.7051 12.7969 17.7051C17.0299 17.7051 20.7819 19.7615 23.1113 22.9287C25.4408 19.7615 29.1927 17.7051 33.4258 17.7051C36.3739 17.7051 39.0873 18.7047 41.251 20.3799V12H46.2373V20.3721C48.3994 18.7013 51.11 17.7061 54.0547 17.7061C61.1235 17.7061 66.8513 23.4332 66.8516 30.502C66.896 34.7404 70.3124 38.1641 74.5879 38.1641C78.8632 38.1639 82.331 34.6444 82.3311 30.4209C82.3311 26.1973 78.9518 22.7735 74.7578 22.6846H74.751V17.7061C81.7826 17.7581 87.4656 23.4333 87.4658 30.502C87.4658 37.571 81.7379 43.2988 74.6689 43.2988C67.6 43.2987 61.8721 37.5709 61.8721 30.502C61.8274 26.2638 58.4119 22.841 54.1367 22.8408C49.8612 22.8408 46.3936 26.3604 46.3936 30.584C46.3936 34.8075 49.7719 38.2303 53.9658 38.3193H53.9736V43.2988C49.7701 43.2678 46.0491 41.2267 43.7354 38.0801C41.4056 41.2443 37.6565 43.2988 33.4258 43.2988C29.1926 43.2988 25.4408 41.2426 23.1113 38.0752C20.7819 41.2426 17.0301 43.2988 12.7969 43.2988C5.84854 43.2988 0.193581 37.7612 0.00488281 30.8584H0V12H4.9873V20.3682ZM12.8857 22.8398C8.60947 22.8398 5.14295 26.3068 5.14258 30.583C5.14258 34.8595 8.60924 38.3271 12.8857 38.3271C17.1622 38.3271 20.6289 34.8595 20.6289 30.583C20.6285 26.3068 17.162 22.8399 12.8857 22.8398ZM33.4854 22.8398C29.2091 22.8398 25.7426 26.3068 25.7422 30.583C25.7422 34.8595 29.2088 38.3271 33.4854 38.3271C37.7618 38.3271 41.2285 34.8595 41.2285 30.583C41.2281 26.3068 37.7616 22.8399 33.4854 22.8398ZM70.9785 17.7061C72.3535 17.7061 73.4688 18.8203 73.4688 20.1953C73.4687 21.5703 72.3535 22.6846 70.9785 22.6846C69.6037 22.6843 68.4893 21.5702 68.4893 20.1953C68.4893 18.8204 69.6037 17.7063 70.9785 17.7061Z" fill="#636366"/>
</svg>
