<svg width="133" height="50" viewBox="0 0 133 50" fill="none" xmlns="http://www.w3.org/2000/svg">
<g clip-path="url(#clip0_2465_6408)">
<path d="M29.3701 26.4297C30.8401 27.5997 32.0101 29.0397 32.8801 30.7797C33.7501 32.5197 34.1701 34.3497 34.1701 36.3297C34.1701 38.8197 33.5401 41.0397 32.2801 43.0197C31.0201 44.9997 29.1901 46.5897 26.7601 47.7297C24.3601 48.8697 21.5101 49.4397 18.2401 49.4397H6.10352e-05V0.569672H17.5501C20.8801 0.569672 23.7001 1.10967 26.0401 2.21967C28.3801 3.32967 30.1201 4.79967 31.2901 6.65967C32.4601 8.51967 33.0301 10.6497 33.0301 12.9597C33.0301 15.8697 32.2501 18.2397 30.6901 20.1597C29.1301 22.0797 27.0601 23.4297 24.4801 24.2697C26.2501 24.5397 27.8701 25.2897 29.3401 26.4297H29.3701ZM6.39006 21.6597H17.1301C20.1301 21.6597 22.4401 20.9697 24.0601 19.5597C25.7101 18.1497 26.5201 16.2297 26.5201 13.7397C26.5201 11.2497 25.7101 9.32967 24.0601 7.91967C22.4101 6.50967 20.0701 5.81967 16.9801 5.81967H6.39006V21.6597ZM25.1101 41.9397C26.8801 40.4397 27.7801 38.3697 27.7801 35.6997C27.7801 33.0297 26.8501 30.8397 24.9901 29.2797C23.1301 27.7197 20.6101 26.9397 17.4901 26.9397H6.42006V44.1897H17.7001C20.8801 44.1897 23.3701 43.4397 25.1401 41.9397H25.1101Z" fill="#252930"/>
<path d="M48.1794 46.7398C44.4294 44.6098 41.4894 41.6398 39.2994 37.8298C37.1094 34.0198 36.0294 29.7298 36.0294 24.9598C36.0294 20.1898 37.1094 15.8998 39.2994 12.0898C41.4594 8.27985 44.4294 5.30985 48.1794 3.17985C51.9294 1.04985 56.0694 -0.000152588 60.5994 -0.000152588C65.1294 -0.000152588 69.3594 1.04985 73.0794 3.17985C76.8294 5.30985 79.7694 8.27985 81.9294 12.0598C84.0894 15.8398 85.1694 20.1598 85.1694 24.9598C85.1694 29.7598 84.0894 34.0798 81.9294 37.8598C79.7694 41.6398 76.8294 44.6098 73.0794 46.7398C69.3294 48.8698 65.1894 49.9198 60.5994 49.9198C56.0094 49.9198 51.9294 48.8698 48.1794 46.7398ZM69.8094 42.0298C72.5394 40.4398 74.6994 38.1598 76.2594 35.2198C77.8194 32.2798 78.5994 28.8598 78.5994 24.9898C78.5994 21.1198 77.8194 17.6398 76.2594 14.6998C74.6994 11.7898 72.5394 9.50985 69.8394 7.91985C67.1394 6.32985 64.0494 5.51985 60.5694 5.51985C57.0894 5.51985 54.0294 6.32985 51.2994 7.91985C48.5994 9.50985 46.4394 11.7598 44.8794 14.6998C43.3194 17.6098 42.5394 21.0598 42.5394 24.9898C42.5394 28.9198 43.3194 32.2798 44.8794 35.2198C46.4394 38.1598 48.5994 40.4398 51.3294 42.0298C54.0594 43.6198 57.1494 44.3998 60.5394 44.3998C63.9294 44.3998 67.0194 43.6198 69.7794 42.0298H69.8094Z" fill="#252930"/>
<path d="M114.9 49.4404L94.7699 27.1204V49.4404H88.3799V0.540375H94.7699V23.1904L114.96 0.540375H123.03L100.86 25.0204L123.24 49.4404H114.9Z" fill="#252930"/>
<path d="M132.181 0.569672V49.4697H125.791V0.569672H132.181Z" fill="#252930"/>
</g>
<defs>
<clipPath id="clip0_2465_6408">
<rect width="132.18" height="49.95" fill="white"/>
</clipPath>
</defs>
</svg>
