<svg width="10" height="17" viewBox="0 0 10 17" fill="none" xmlns="http://www.w3.org/2000/svg">
<path d="M0.724632 8.92716L7.49526 15.6978C7.89547 16.098 8.54434 16.098 8.94455 15.6978C9.34476 15.2976 9.34476 14.6487 8.94455 14.2485L2.17392 7.47787C1.77371 7.07766 1.12484 7.07766 0.724633 7.47787C0.324424 7.87808 0.324423 8.52695 0.724632 8.92716Z" fill="#252930"/>
<path d="M7.50479 0.724632L0.73416 7.49526C0.333951 7.89547 0.33395 8.54434 0.734159 8.94455C1.13437 9.34476 1.78323 9.34476 2.18344 8.94455L8.95407 2.17392C9.35428 1.77371 9.35428 1.12484 8.95407 0.724633C8.55387 0.324424 7.905 0.324423 7.50479 0.724632Z" fill="#252930"/>
</svg>
