<svg width="17" height="17" viewBox="0 0 17 17" fill="none" xmlns="http://www.w3.org/2000/svg">
<path d="M2.17391 15.7005L15.7005 2.17392C16.1007 1.77371 16.1007 1.12485 15.7005 0.724641C15.3003 0.324432 14.6515 0.324433 14.2513 0.724641L0.724627 14.2513C0.32442 14.6515 0.32442 15.3003 0.724628 15.7005C1.12484 16.1008 1.7737 16.1008 2.17391 15.7005Z" fill="#252930"/>
<path d="M15.7005 14.2514L2.17392 0.724823C1.77371 0.324615 1.12485 0.324614 0.724641 0.724822C0.324432 1.12503 0.324433 1.7739 0.724641 2.1741L14.2513 15.7007C14.6515 16.1009 15.3003 16.1009 15.7005 15.7007C16.1008 15.3005 16.1008 14.6517 15.7005 14.2514Z" fill="#252930"/>
</svg>
