<svg width="16" height="16" viewBox="0 0 16 16" fill="none" xmlns="http://www.w3.org/2000/svg">
<path d="M1.02443 16.0068C0.953854 16.0068 0.884933 15.9999 0.818375 15.9863C0.351394 15.8908 0.000102089 15.4776 1.53483e-05 14.9824L1.61565e-05 5.73828C6.2936e-05 5.17247 0.458655 4.71407 1.02443 4.71387C1.59038 4.71387 2.04977 5.17234 2.04982 5.73828L2.04982 12.501L14.25 0.299805C14.6501 -0.100155 15.299 -0.0999776 15.6992 0.299805C16.0994 0.700013 16.0994 1.34979 15.6992 1.75L3.4922 13.957L10.2686 13.957C10.8345 13.9571 11.293 14.4165 11.293 14.9824C11.2929 15.5483 10.8345 16.0068 10.2686 16.0068L1.02443 16.0068Z" fill="#252930"/>
</svg>
