<svg width="10" height="17" viewBox="0 0 10 17" fill="none" xmlns="http://www.w3.org/2000/svg">
<path d="M2.17477 15.7077L8.9454 8.93711C9.34561 8.5369 9.34561 7.88803 8.9454 7.48782C8.5452 7.08762 7.89633 7.08762 7.49612 7.48782L0.725491 14.2585C0.325283 14.6587 0.325282 15.3075 0.72549 15.7077C1.1257 16.1079 1.77456 16.1079 2.17477 15.7077Z" fill="#252930"/>
<path d="M8.94456 7.49521L2.17392 0.724579C1.77371 0.32437 1.12485 0.32437 0.724641 0.724578C0.324432 1.12479 0.324432 1.77365 0.72464 2.17386L7.49527 8.94449C7.89548 9.3447 8.54435 9.3447 8.94456 8.94449C9.34476 8.54428 9.34476 7.89542 8.94456 7.49521Z" fill="#252930"/>
</svg>
