<svg width="17" height="17" viewBox="0 0 17 17" fill="none" xmlns="http://www.w3.org/2000/svg">
<path d="M2.27475 7.12513L2.27475 15.7191C2.27475 16.2851 2.73356 16.7439 3.29954 16.7439C3.86552 16.7439 4.32434 16.2851 4.32434 15.7191L4.32434 7.12513C4.32434 6.55915 3.86552 6.10033 3.29954 6.10033C2.73356 6.10033 2.27475 6.55915 2.27475 7.12513Z" fill="#252930"/>
<path d="M12.5435 7.12513L12.5435 15.7191C12.5435 16.2851 13.0023 16.7439 13.5683 16.7439C14.1343 16.7439 14.5931 16.2851 14.5931 15.7191L14.5931 7.12513C14.5931 6.55915 14.1343 6.10033 13.5683 6.10033C13.0023 6.10033 12.5435 6.55915 12.5435 7.12513Z" fill="#252930"/>
<path d="M13.5682 14.6838H3.29952C2.73354 14.6838 2.27472 15.1426 2.27472 15.7086C2.27472 16.2746 2.73354 16.7334 3.29952 16.7334H13.5682C14.1342 16.7334 14.593 16.2746 14.593 15.7086C14.593 15.1426 14.1342 14.6838 13.5682 14.6838Z" fill="#252930"/>
<path d="M16.1359 7.69766L9.16306 0.724823C8.76285 0.324615 8.11398 0.324614 7.71378 0.724822C7.31357 1.12503 7.31357 1.7739 7.71378 2.1741L14.6866 9.14694C15.0868 9.54715 15.7357 9.54715 16.1359 9.14694C16.5361 8.74673 16.5361 8.09787 16.1359 7.69766Z" fill="#252930"/>
<path d="M2.17398 9.15384L9.1539 2.17392C9.55411 1.77371 9.55411 1.12485 9.1539 0.724641C8.75369 0.324432 8.10483 0.324432 7.70462 0.72464L0.724703 7.70456C0.324494 8.10477 0.324494 8.75363 0.724703 9.15384C1.12491 9.55405 1.77378 9.55405 2.17398 9.15384Z" fill="#252930"/>
</svg>
