<svg width="16" height="18" viewBox="0 0 16 18" fill="none" xmlns="http://www.w3.org/2000/svg">
<path d="M1.75 17.5C1.26875 17.5 0.856771 17.3286 0.514063 16.9859C0.171354 16.6432 0 16.2312 0 15.75V3.5C0 3.01875 0.171354 2.60677 0.514063 2.26406C0.856771 1.92135 1.26875 1.75 1.75 1.75H2.625V0H4.375V1.75H11.375V0H13.125V1.75H14C14.4812 1.75 14.8932 1.92135 15.2359 2.26406C15.5786 2.60677 15.75 3.01875 15.75 3.5V15.75C15.75 16.2312 15.5786 16.6432 15.2359 16.9859C14.8932 17.3286 14.4812 17.5 14 17.5H1.75ZM1.75 15.75H14V7H1.75V15.75ZM1.75 5.25H14V3.5H1.75V5.25Z" fill="#252930"/>
</svg>
