<svg width="12" height="16" viewBox="0 0 12 16" fill="none" xmlns="http://www.w3.org/2000/svg">
<g clip-path="url(#clip0_2555_8526)">
<path d="M-1.95503e-05 0.990117L-1.95503e-05 14.8801C-1.95503e-05 15.4269 0.443219 15.8701 0.98998 15.8701C1.53674 15.8701 1.97998 15.4269 1.97998 14.8801L1.97998 0.990117C1.97998 0.443356 1.53674 0.000117302 0.98998 0.000117302C0.443219 0.000117302 -1.95503e-05 0.443356 -1.95503e-05 0.990117Z" fill="#252930"/>
<path d="M9.92002 0.990117L9.92002 14.8801C9.92002 15.4269 10.3633 15.8701 10.91 15.8701C11.4568 15.8701 11.9 15.4269 11.9 14.8801L11.9 0.990117C11.9 0.443356 11.4568 0.000117302 10.91 0.000117302C10.3633 0.000117302 9.92002 0.443356 9.92002 0.990117Z" fill="#252930"/>
<path d="M10.91 13.8901H0.99C0.443238 13.8901 0 14.3334 0 14.8801C0 15.4269 0.443238 15.8701 0.99 15.8701H10.91C11.4568 15.8701 11.9 15.4269 11.9 14.8801C11.9 14.3334 11.4568 13.8901 10.91 13.8901Z" fill="#252930"/>
<path d="M10.91 -1.95503e-05L0.99 -1.95503e-05C0.443238 -1.95503e-05 0 0.443219 0 0.98998C0 1.53674 0.443238 1.97998 0.99 1.97998L10.91 1.97998C11.4568 1.97998 11.9 1.53674 11.9 0.98998C11.9 0.443219 11.4568 -1.95503e-05 10.91 -1.95503e-05Z" fill="#252930"/>
<path d="M6.94997 4.96995H4.95997C4.41321 4.96995 3.96997 5.41319 3.96997 5.95995C3.96997 6.50671 4.41321 6.94995 4.95997 6.94995H6.94997C7.49673 6.94995 7.93997 6.50671 7.93997 5.95995C7.93997 5.41319 7.49673 4.96995 6.94997 4.96995Z" fill="#252930"/>
<path d="M6.94997 8.93992H4.95997C4.41321 8.93992 3.96997 9.38316 3.96997 9.92992C3.96997 10.4767 4.41321 10.9199 4.95997 10.9199H6.94997C7.49673 10.9199 7.93997 10.4767 7.93997 9.92992C7.93997 9.38316 7.49673 8.93992 6.94997 8.93992Z" fill="#252930"/>
</g>
<defs>
<clipPath id="clip0_2555_8526">
<rect width="11.9" height="15.87" fill="white"/>
</clipPath>
</defs>
</svg>
