<svg width="17" height="17" viewBox="0 0 17 17" fill="none" xmlns="http://www.w3.org/2000/svg">
<path d="M10.2476 6.15921C10.2476 3.90108 8.41732 2.07017 6.15921 2.07007C3.90101 2.07007 2.07007 3.90101 2.07007 6.15921C2.07017 8.41732 3.90108 10.2476 6.15921 10.2476C8.41726 10.2474 10.2474 8.41726 10.2476 6.15921ZM12.3184 6.15921C12.3183 9.56065 9.56065 12.3183 6.15921 12.3184C2.75768 12.3184 0.000106182 9.56071 0 6.15921C0 2.75762 2.75762 0 6.15921 0C9.56071 0.000106185 12.3184 2.75768 12.3184 6.15921Z" fill="#252930"/>
<path d="M15.693 14.2295C16.0972 14.6336 16.097 15.2889 15.6926 15.6928C15.2887 16.0972 14.6334 16.0974 14.2292 15.6933L9.88562 11.3503C9.48119 10.9459 9.48117 10.2902 9.88557 9.88582C10.29 9.48141 10.9457 9.48144 11.35 9.88587L15.693 14.2295Z" fill="#252930"/>
</svg>
