<svg width="17" height="17" viewBox="0 0 17 17" fill="none" xmlns="http://www.w3.org/2000/svg">
<path d="M2.87282 8.52509C3.19552 8.18296 3.7328 8.23033 4.08446 8.54261C4.53837 8.94568 4.59314 9.70707 4.19025 10.1611C3.07491 11.4182 2.27568 13.2167 2.07866 15.3516C2.02611 15.9208 1.56804 16.3857 0.996337 16.3857C0.424635 16.3857 -0.0432003 15.9214 0.00317561 15.3515C0.220072 12.6865 1.26564 10.2291 2.87282 8.52509ZM12.1247 8.54655C12.4765 8.23474 13.0135 8.18793 13.3358 8.53013C14.9404 10.2339 15.9846 12.6891 16.2014 15.3515C16.2478 15.9214 15.7799 16.3857 15.2082 16.3857C14.6365 16.3857 14.1785 15.9208 14.1259 15.3516C13.9291 13.2189 13.1311 11.4217 12.0175 10.1648C11.615 9.71051 11.6705 8.94917 12.1247 8.54655Z" fill="#252930"/>
<path d="M10.141 4.10906C10.1408 2.98299 9.22737 2.07007 8.10125 2.07007C6.97529 2.07026 6.06245 2.98311 6.06226 4.10906C6.06226 5.23518 6.97517 6.14866 8.10125 6.14885C9.22749 6.14885 10.141 5.2353 10.141 4.10906ZM12.2111 4.10906C12.2111 6.3787 10.3709 8.21892 8.10125 8.21892C5.83178 8.21872 3.99219 6.37858 3.99219 4.10906C3.99238 1.83971 5.8319 0.000196368 8.10125 0C10.3708 0 12.2109 1.83959 12.2111 4.10906Z" fill="#252930"/>
</svg>
