<svg width="58" height="58" viewBox="0 0 58 58" fill="none" xmlns="http://www.w3.org/2000/svg">
<g clip-path="url(#clip0_2465_6474)">
<path d="M31.4994 -0.000152588H25.7694V31.4998H31.4994V-0.000152588Z" fill="#252930"/>
<path d="M57.2401 31.4994V25.7694L25.7401 25.7694V31.4994H57.2401Z" fill="#252930"/>
<path d="M30.6825 30.6502L26.6307 26.5985L0.00816637 53.2211L4.05989 57.2728L30.6825 30.6502Z" fill="#252930"/>
<path d="M18.0277 22.0706L22.0795 18.0189L4.06946 0.00888146L0.0177367 4.0606L18.0277 22.0706Z" fill="#252930"/>
<path d="M53.2001 57.2825L57.2518 53.2308L39.2418 35.2208L35.1901 39.2725L53.2001 57.2825Z" fill="#252930"/>
<path d="M57.2826 4.06182L53.2308 0.0101013L26.6295 26.6115L30.6812 30.6632L57.2826 4.06182Z" fill="#252930"/>
<path d="M31.4994 25.7694H25.7694V57.2694H31.4994V25.7694Z" fill="#252930"/>
<path d="M31.4706 31.4994V25.7694L-0.0294189 25.7694V31.4994H31.4706Z" fill="#EE7A60"/>
<path d="M31.4999 31.4994V25.7694H25.7699V31.4994H31.4999Z" fill="white"/>
</g>
<defs>
<clipPath id="clip0_2465_6474">
<rect width="57.27" height="57.27" fill="white"/>
</clipPath>
</defs>
</svg>
