<svg width="16" height="16" viewBox="0 0 16 16" fill="none" xmlns="http://www.w3.org/2000/svg">
<path d="M14.975 0C15.0455 1.52671e-05 15.1145 0.00690615 15.181 0.0205078C15.648 0.116011 15.9993 0.529224 15.9994 1.02441V10.2686C15.9993 10.8344 15.5407 11.2928 14.975 11.293C14.409 11.293 13.9496 10.8345 13.9496 10.2686V3.50586L1.74937 15.707C1.34928 16.107 0.700355 16.1068 0.300156 15.707C-0.100052 15.3068 -0.100052 14.657 0.300156 14.2568L12.5072 2.0498H5.73082C5.16486 2.04978 4.70641 1.59038 4.70641 1.02441C4.7065 0.458533 5.16492 2.2679e-05 5.73082 0H14.975Z" fill="#252930"/>
</svg>
